<?xml version="1.0" standalone="no"?>
<!DOCTYPE svg PUBLIC "-//W3C//DTD SVG 20010904//EN"
 "http://www.w3.org/TR/2001/REC-SVG-20010904/DTD/svg10.dtd">
<svg version="1.0" xmlns="http://www.w3.org/2000/svg"
 width="259.000000pt" height="195.000000pt" viewBox="0 0 259.000000 195.000000"
 preserveAspectRatio="xMidYMid meet">

<g transform="translate(0.000000,195.000000) scale(0.100000,-0.100000)"
fill="#000000" stroke="none">
<path d="M1925 1651 c40 -24 54 -42 105 -130 l43 -74 -22 -18 -22 -18 33 -5
c18 -3 62 -7 98 -10 l65 -5 49 91 c33 61 44 89 32 85 -9 -4 -22 -9 -30 -13 -8
-3 -25 14 -46 46 -18 28 -41 55 -51 60 -10 6 -78 10 -151 10 l-133 0 30 -19z"/>
<path d="M1778 1629 c-14 -19 -50 -77 -80 -129 -50 -86 -58 -108 -83 -233 -16
-75 -30 -135 -33 -133 -4 4 -42 240 -42 264 0 9 -31 12 -123 12 l-123 0 -33
-292 c-18 -161 -35 -310 -38 -330 l-6 -38 116 0 116 0 3 138 c3 151 0 151 44
-5 l15 -53 69 0 69 0 6 33 c3 17 9 61 15 96 5 35 11 65 13 68 2 2 9 -45 16
-104 6 -60 14 -123 17 -140 l6 -33 114 0 c84 0 114 3 114 13 1 6 -14 152 -32
322 l-32 311 52 86 c45 73 51 90 41 106 -21 34 -78 65 -128 70 -45 4 -50 2
-73 -29z"/>
<path d="M190 1080 l0 -330 115 0 115 0 0 245 c0 153 4 245 10 245 5 0 17 -11
26 -25 17 -26 15 -49 -13 -141 l-16 -51 43 -129 c23 -71 45 -132 49 -136 3 -4
60 -2 126 3 82 7 121 7 123 -1 2 -6 77 -10 213 -10 l209 0 0 84 0 83 -102 9
-103 9 -3 38 -3 37 105 0 104 0 4 60 3 60 -108 0 -108 0 3 53 3 52 102 3 102
3 3 84 3 85 -212 0 -213 0 -2 -316 -3 -316 -48 130 -48 131 22 71 c48 158 -2
259 -142 289 -27 6 -120 11 -204 11 l-155 0 0 -330z"/>
<path d="M2257 1333 c-48 -26 -86 -52 -85 -58 2 -5 29 -61 62 -123 l58 -113
32 7 c71 15 136 73 136 121 0 23 -98 213 -110 213 -3 0 -45 -22 -93 -47z"/>
<path d="M2081 1023 c-29 -42 -55 -81 -57 -87 -2 -6 21 -49 51 -96 51 -79 55
-83 55 -52 l0 32 58 0 c35 0 66 6 79 15 11 8 47 56 78 107 32 51 64 102 72
114 13 21 12 20 -35 -3 -45 -22 -56 -23 -145 -17 -96 7 -96 7 -99 35 -3 26 -7
23 -57 -48z"/>
<path d="M190 638 c0 -29 3 -90 7 -135 6 -79 7 -83 30 -83 19 0 31 15 71 96
53 108 59 105 61 -23 1 -71 2 -73 26 -73 27 0 33 10 111 178 l43 92 -25 0
c-21 0 -31 -12 -69 -92 l-43 -93 -1 61 c-2 101 -9 124 -41 124 -24 0 -31 -9
-71 -92 l-44 -93 -3 93 c-3 90 -3 92 -27 92 -23 0 -25 -3 -25 -52z"/>
<path d="M552 562 c-40 -71 -72 -132 -72 -135 0 -4 10 -7 23 -7 14 0 28 11 39
30 16 28 22 30 71 30 53 0 55 -1 61 -30 5 -27 31 -41 48 -25 2 3 -5 62 -16
132 l-21 128 -31 3 c-29 3 -33 -2 -102 -126z m107 -9 c1 -20 -4 -23 -34 -23
-19 0 -35 3 -35 6 0 3 12 26 27 52 l28 47 6 -30 c4 -17 7 -40 8 -52z"/>
<path d="M832 674 c-19 -13 -22 -24 -20 -57 3 -39 6 -44 56 -71 61 -32 74 -53
47 -72 -28 -21 -53 -17 -81 11 -27 27 -64 33 -64 11 0 -8 10 -27 23 -42 18
-20 35 -28 73 -31 43 -5 54 -2 82 22 55 46 43 94 -32 132 -58 29 -69 42 -54
60 16 20 65 16 81 -7 9 -13 20 -17 35 -13 28 7 28 18 -3 48 -19 20 -34 25 -72
25 -28 0 -58 -7 -71 -16z"/>
<path d="M1047 670 c-4 -17 0 -20 34 -20 46 0 45 3 19 -110 -26 -112 -25 -120
4 -120 22 0 25 8 46 115 l24 114 40 3 c29 2 42 8 44 21 3 15 -7 17 -101 17
-96 0 -105 -2 -110 -20z"/>
<path d="M1294 664 c-21 -81 -50 -235 -46 -239 10 -9 202 -5 202 4 0 5 3 16 6
25 5 14 -5 16 -74 16 l-79 0 6 33 7 32 72 3 c64 3 72 5 72 22 0 18 -7 20 -65
20 -68 0 -71 2 -59 48 6 20 12 22 80 22 67 0 74 2 74 20 0 19 -7 20 -95 20
-93 0 -95 0 -101 -26z"/>
<path d="M1684 671 c-40 -25 -64 -77 -64 -141 0 -44 4 -56 29 -81 48 -47 135
-35 175 25 20 32 20 33 -5 39 -16 4 -30 -2 -50 -24 -15 -16 -34 -29 -43 -29
-28 0 -56 38 -56 75 0 89 78 147 125 95 23 -26 67 -28 58 -2 -3 9 -15 27 -26
40 -26 28 -98 30 -143 3z"/>
<path d="M1958 674 c-16 -8 -37 -33 -49 -56 -39 -77 -22 -166 37 -188 95 -37
193 42 194 153 0 40 -5 53 -29 78 -25 24 -37 29 -78 29 -26 -1 -60 -8 -75 -16z
m118 -49 c32 -49 -2 -139 -59 -158 -44 -14 -77 13 -77 64 0 45 21 93 47 108
33 19 71 13 89 -14z"/>
<path d="M2191 574 c-13 -64 -26 -125 -29 -136 -4 -16 -1 -19 19 -16 22 3 26
12 45 108 18 89 22 99 27 71 4 -19 7 -67 7 -108 l0 -74 26 3 c23 3 33 16 72
105 25 57 47 101 49 99 2 -2 -5 -44 -17 -95 -25 -113 -25 -113 2 -109 21 3 25
14 45 123 12 66 22 126 23 133 0 7 -14 12 -37 12 l-38 0 -40 -90 -40 -91 -9
91 -8 90 -37 0 -36 0 -24 -116z"/>
<path d="M1500 444 c0 -21 4 -25 23 -22 14 2 23 11 25 26 3 18 -1 22 -22 22
-21 0 -26 -5 -26 -26z"/>
</g>
</svg>
