<?xml version="1.0" encoding="UTF-8"?>
<svg version="1.1" xmlns="http://www.w3.org/2000/svg" width="200" height="200">
<path d="M0 0 C66 0 132 0 200 0 C200 66 200 132 200 200 C134 200 68 200 0 200 C0 134 0 68 0 0 Z " fill="#FCFCFC" transform="translate(0,0)"/>
<path d="M0 0 C4.08375 -0.0825 8.1675 -0.165 12.375 -0.25 C14.27451416 -0.30462402 14.27451416 -0.30462402 16.21240234 -0.36035156 C23.50798818 -0.4310607 29.58910122 0.32589896 36 4 C40.11477213 8.21513243 41.21432039 10.97287639 41.171875 16.8515625 C41 19 41 19 39.9375 22.5625 C37.77425957 30.49438157 41.17842002 36.24065505 44 44 C44.33 29.48 44.66 14.96 45 0 C55.89 0 66.78 0 78 0 C78 4.62 78 9.24 78 14 C72.72 14 67.44 14 62 14 C62 16.64 62 19.28 62 22 C67.61 22 73.22 22 79 22 C79 25.3 79 28.6 79 32 C73.39 32 67.78 32 62 32 C62 33.65 62 35.3 62 37 C67.28 37.33 72.56 37.66 78 38 C78 42.29 78 46.58 78 51 C60.84 51 43.68 51 26 51 C18 31 18 31 21 22 C21.03954234 19.66700175 21.04401732 17.33291811 21 15 C20.01 14.67 19.02 14.34 18 14 C18 26.21 18 38.42 18 51 C12.06 51 6.12 51 0 51 C0 34.17 0 17.34 0 0 Z " fill="#070707" transform="translate(14,66)"/>
<path d="M0 0 C3.57680199 0.57228832 6.04201459 1.60816804 9.125 3.5 C11.125 6.5 11.125 6.5 11.0625 8.6875 C10.16588021 11.37735937 9.18896219 12.88511648 7.56640625 15.16015625 C4.89757608 19.39120505 4.60078128 22.84012523 5.125 27.75 C5.18679443 28.53705322 5.24858887 29.32410645 5.31225586 30.13500977 C5.54583016 32.92809179 5.83128352 35.71259933 6.125 38.5 C6.24504395 39.67095215 6.36508789 40.8419043 6.48876953 42.04833984 C7.23766752 49.29643516 8.0279089 56.53871101 8.86547852 63.77709961 C9.125 66.5 9.125 66.5 9.125 70.5 C2.855 70.5 -3.415 70.5 -9.875 70.5 C-10.535 65.22 -11.195 59.94 -11.875 54.5 C-12.535 57.8 -13.195 61.1 -13.875 64.5 C-17.835 64.5 -21.795 64.5 -25.875 64.5 C-26.865 60.54 -27.855 56.58 -28.875 52.5 C-29.205 58.44 -29.535 64.38 -29.875 70.5 C-35.815 70.5 -41.755 70.5 -47.875 70.5 C-46.61871759 53.37488714 -44.44439852 36.47549218 -41.875 19.5 C-35.605 19.5 -29.335 19.5 -22.875 19.5 C-21.39 28.41 -21.39 28.41 -19.875 37.5 C-18.45645966 32.60655594 -18.45645966 32.60655594 -17.3046875 27.6484375 C-15.67854262 19.51771312 -9.24411838 1.60767276 0 0 Z " fill="#191919" transform="translate(141.875,46.5)"/>
<path d="M0 0 C10.89 0 21.78 0 33 0 C33 4.62 33 9.24 33 14 C27.72 14 22.44 14 17 14 C17 16.64 17 19.28 17 22 C22.61 22 28.22 22 34 22 C34 25.3 34 28.6 34 32 C28.39 32 22.78 32 17 32 C17 33.65 17 35.3 17 37 C16.34 37 15.68 37 15 37 C15.33 38.65 15.66 40.3 16 42 C13.36 42 10.72 42 8 42 C8 40.35 8 38.7 8 37 C5.69 37 3.38 37 1 37 C1 40.96 1 44.92 1 49 C-1 47 -1 47 -1.20254517 44.97518921 C-1.18033905 44.14468048 -1.15813293 43.31417175 -1.13525391 42.45849609 C-1.11508209 41.51767181 -1.09491028 40.57684753 -1.0741272 39.60751343 C-1.04193085 38.58976837 -1.0097345 37.57202332 -0.9765625 36.5234375 C-0.95153656 35.48305328 -0.92651062 34.44266907 -0.90072632 33.37075806 C-0.81836806 30.03851498 -0.7218394 26.70685068 -0.625 23.375 C-0.56677665 21.11981553 -0.50947304 18.86460711 -0.453125 16.609375 C-0.31449824 11.07245901 -0.15673483 5.53655186 0 0 Z " fill="#010101" transform="translate(59,66)"/>
<path d="M0 0 C0.33 0 0.66 0 1 0 C1.57220358 5.62311767 2.14179876 11.24649115 2.70898438 16.87011719 C2.90227845 18.78295013 3.09628356 20.69571135 3.29101562 22.60839844 C3.57088446 25.35853808 3.8481905 28.10892595 4.125 30.859375 C4.21249512 31.71368103 4.29999023 32.56798706 4.39013672 33.44818115 C4.47021973 34.24870911 4.55030273 35.04923706 4.6328125 35.87402344 C4.73940186 36.92659332 4.73940186 36.92659332 4.84814453 38.00042725 C4.99963404 39.99518125 5 41.99950191 5 44 C-1.27 44 -7.54 44 -14 44 C-14.66 38.72 -15.32 33.44 -16 28 C-16.66 31.3 -17.32 34.6 -18 38 C-18.33 37.34 -18.66 36.68 -19 36 C-19.66 36 -20.32 36 -21 36 C-20.67 25.11 -20.34 14.22 -20 3 C-13.4 3 -6.8 3 0 3 C0 2.01 0 1.02 0 0 Z " fill="#1B1B1B" transform="translate(146,73)"/>
<path d="M0 0 C3.57680199 0.57228832 6.04201459 1.60816804 9.125 3.5 C11.125 6.5 11.125 6.5 11.0625 8.6875 C10.17523972 11.34928084 9.20571832 12.91493105 7.625 15.1875 C4.52027274 19.86695925 4.35604421 23.95493886 4.125 29.5 C-2.475 29.5 -9.075 29.5 -15.875 29.5 C-15.86339844 31.71460938 -15.85179688 33.92921875 -15.83984375 36.2109375 C-15.83204841 38.35221208 -15.82597436 40.4934851 -15.82006836 42.63476562 C-15.81503486 44.12468166 -15.80820758 45.61459274 -15.79956055 47.10449219 C-15.78745195 49.24415304 -15.78176193 51.38374868 -15.77734375 53.5234375 C-15.77210693 54.81169434 -15.76687012 56.09995117 -15.76147461 57.42724609 C-15.875 60.5 -15.875 60.5 -16.875 62.5 C-16.215 62.5 -15.555 62.5 -14.875 62.5 C-14.875 63.16 -14.875 63.82 -14.875 64.5 C-18.505 64.5 -22.135 64.5 -25.875 64.5 C-26.74004743 61.03981027 -26.99213493 58.58428675 -26.97265625 55.078125 C-26.96943359 54.05332031 -26.96621094 53.02851562 -26.96289062 51.97265625 C-26.95451172 50.90917969 -26.94613281 49.84570312 -26.9375 48.75 C-26.93298828 47.67105469 -26.92847656 46.59210938 -26.92382812 45.48046875 C-26.91205727 42.82025617 -26.89561399 40.16015635 -26.875 37.5 C-24.565 37.5 -22.255 37.5 -19.875 37.5 C-18.92348839 34.27949918 -17.99515614 31.11975272 -17.35546875 27.8203125 C-15.67581013 19.64958604 -9.33749067 1.62391142 0 0 Z " fill="#040404" transform="translate(141.875,46.5)"/>
<path d="M0 0 C1.82421875 2.51171875 1.82421875 2.51171875 3.6875 5.6875 C4.31011719 6.72261719 4.93273437 7.75773437 5.57421875 8.82421875 C7.10510631 12.23411351 7.44489406 14.30999634 7 18 C5 20.375 5 20.375 3 22 C3.33 22.66 3.66 23.32 4 24 C3.13549805 25.77172852 3.13549805 25.77172852 1.76171875 27.87890625 C1.27123047 28.63494141 0.78074219 29.39097656 0.27539062 30.16992188 C-0.24861328 30.95947266 -0.77261719 31.74902344 -1.3125 32.5625 C-2.08110352 33.75262695 -2.08110352 33.75262695 -2.86523438 34.96679688 C-6.72781746 40.86390873 -6.72781746 40.86390873 -9 42 C-10.54023996 42.06950541 -12.08334988 42.08452357 -13.625 42.0625 C-14.85089844 42.04896484 -14.85089844 42.04896484 -16.1015625 42.03515625 C-16.72804687 42.02355469 -17.35453125 42.01195312 -18 42 C-18 43.65 -18 45.3 -18 47 C-20.42163542 44.71695215 -22.35175667 42.29468033 -24.25 39.5625 C-24.79140625 38.80066406 -25.3328125 38.03882813 -25.890625 37.25390625 C-27 35 -27 35 -26.89453125 33.04296875 C-25.71535299 30.34991097 -24.16018973 28.13044399 -22.4375 25.75 C-21.47650391 24.41195312 -21.47650391 24.41195312 -20.49609375 23.046875 C-19.75552734 22.03367187 -19.75552734 22.03367187 -19 21 C-18.67 22.32 -18.34 23.64 -18 25 C-14.37 24.67 -10.74 24.34 -7 24 C-11.455 15.585 -11.455 15.585 -16 7 C-13.27794199 4.27794199 -11.36473085 2.95239358 -8 1.25 C-6.700625 0.57710938 -6.700625 0.57710938 -5.375 -0.109375 C-3 -1 -3 -1 0 0 Z " fill="#0D0D0D" transform="translate(183,70)"/>
<path d="M0 0 C2.31 0 4.62 0 7 0 C7.13277344 0.78246094 7.26554687 1.56492187 7.40234375 2.37109375 C7.57894531 3.38300781 7.75554688 4.39492187 7.9375 5.4375 C8.11152344 6.44683594 8.28554688 7.45617187 8.46484375 8.49609375 C8.74751097 10.9287438 8.74751097 10.9287438 10 12 C10.99 8.04 11.98 4.08 13 0 C15.31 0 17.62 0 20 0 C21.17076699 3.98060777 22.25749403 7.91621717 23 12 C25.39073445 8.17482487 25.55966552 4.40334476 26 0 C28.31 0 30.62 0 33 0 C31.78254331 10.77091097 30.12034881 21.36998463 28 32 C26.02 32 24.04 32 22 32 C21.67 32.66 21.34 33.32 21 34 C17.81188896 25.66712608 16.15260899 20.54217303 19 12 C19.03954234 9.66700175 19.04401732 7.33291811 19 5 C18.01 4.67 17.02 4.34 16 4 C16.05220703 5.14662109 16.05220703 5.14662109 16.10546875 6.31640625 C16.33292785 15.3172877 15.02712818 23.27610907 13 32 C10.36 32 7.72 32 5 32 C0.4308534 10.5989937 0.4308534 10.5989937 0 0 Z " fill="#171717" transform="translate(16,76)"/>
<path d="M0 0 C0.33 0.66 0.66 1.32 1 2 C3.64 2 6.28 2 9 2 C9 9.92 9 17.84 9 26 C10.32 26 11.64 26 13 26 C13 28.97 13 31.94 13 35 C7.06 35 1.12 35 -5 35 C-4.71501128 31.39519593 -4.42217519 27.79130362 -4.125 24.1875 C-4.04636719 23.18267578 -3.96773438 22.17785156 -3.88671875 21.14257812 C-2.3125 2.3125 -2.3125 2.3125 0 0 Z " fill="#050505" transform="translate(99,82)"/>
<path d="M0 0 C0.66 0 1.32 0 2 0 C4.34637977 12.55562794 5.06800908 25.27931539 6 38 C-0.27 38 -6.54 38 -13 38 C-13 35.03 -13 32.06 -13 29 C-8.38 29 -3.76 29 1 29 C1 26.69 1 24.38 1 22 C-3.29 22 -7.58 22 -12 22 C-12 16 -12 16 -11 15 C-9.31391034 14.92794489 -7.62499341 14.91613932 -5.9375 14.9375 C-5.01839844 14.94652344 -4.09929687 14.95554687 -3.15234375 14.96484375 C-2.44207031 14.97644531 -1.73179687 14.98804687 -1 15 C-1 13.02 -1 11.04 -1 9 C-4.63 9 -8.26 9 -12 9 C-12 7.35 -12 5.7 -12 4 C-8.04 4 -4.08 4 0 4 C0 2.68 0 1.36 0 0 Z " fill="#050505" transform="translate(145,79)"/>
<path d="M0 0 C10.89 0 21.78 0 33 0 C33 0.33 33 0.66 33 1 C22.44 1 11.88 1 1 1 C1 3.97 1 6.94 1 10 C3.31 10 5.62 10 8 10 C9.14249828 14.23499198 10.28174652 18.47084057 11.41796875 22.70751953 C11.8050928 24.14916689 12.19310962 25.59057482 12.58203125 27.03173828 C13.14036246 29.10126699 13.69549498 31.1716308 14.25 33.2421875 C14.58515625 34.4885498 14.9203125 35.73491211 15.265625 37.01904297 C16 40 16 40 16 42 C13.36 42 10.72 42 8 42 C8 40.35 8 38.7 8 37 C5.69 37 3.38 37 1 37 C1 40.96 1 44.92 1 49 C-1 47 -1 47 -1.20254517 44.97518921 C-1.18033905 44.14468048 -1.15813293 43.31417175 -1.13525391 42.45849609 C-1.11508209 41.51767181 -1.09491028 40.57684753 -1.0741272 39.60751343 C-1.04193085 38.58976837 -1.0097345 37.57202332 -0.9765625 36.5234375 C-0.95153656 35.48305328 -0.92651062 34.44266907 -0.90072632 33.37075806 C-0.81836806 30.03851498 -0.7218394 26.70685068 -0.625 23.375 C-0.56677665 21.11981553 -0.50947304 18.86460711 -0.453125 16.609375 C-0.31449824 11.07245901 -0.15673483 5.53655186 0 0 Z " fill="#2D2D2D" transform="translate(59,66)"/>
<path d="M0 0 C3.20708688 -0.23389694 6.41197595 -0.37487528 9.625 -0.5 C10.52863281 -0.56703125 11.43226563 -0.6340625 12.36328125 -0.703125 C19.01813726 -0.89742737 19.01813726 -0.89742737 21.98730469 1.81640625 C23.48886797 3.81849063 24.79972065 5.80598087 26 8 C27.32 7.67 28.64 7.34 30 7 C28.23104283 11.98524294 25.6020365 16.4121988 23 21 C17.72 20.67 12.44 20.34 7 20 C8.32 19.34 9.64 18.68 11 18 C9.73252511 15.74804937 8.46117132 13.49844253 7.1875 11.25 C6.83107422 10.61578125 6.47464844 9.9815625 6.10742188 9.328125 C4.24751265 6.05195463 2.36160916 2.95014899 0 0 Z " fill="#050505" transform="translate(149,47)"/>
<path d="M0 0 C1.82421875 2.51171875 1.82421875 2.51171875 3.6875 5.6875 C4.31011719 6.72261719 4.93273437 7.75773437 5.57421875 8.82421875 C7.11852649 12.26400559 7.52626271 14.28004497 7 18 C5.71484375 19.8984375 5.71484375 19.8984375 3.9375 21.375 C3.36902344 21.87773438 2.80054688 22.38046875 2.21484375 22.8984375 C0 24 0 24 -7 24 C-9.97 18.39 -12.94 12.78 -16 7 C-13.27794199 4.27794199 -11.36473085 2.95239358 -8 1.25 C-7.13375 0.80140625 -6.2675 0.3528125 -5.375 -0.109375 C-3 -1 -3 -1 0 0 Z " fill="#060606" transform="translate(183,70)"/>
<path d="M0 0 C2.5625 1.4375 2.5625 1.4375 4 4 C4.85936783 8.76722996 4.45367997 12.10884291 2.25 16.4375 C-0.79158672 19.90152931 -2.40341462 20.79618059 -6.9375 21.375 C-10.86918629 20.89356903 -12.35937738 19.94240806 -15 17 C-16.44712437 12.57350194 -16.18577058 9.80568375 -14.25 5.6875 C-11.01160119 -0.46304102 -6.40853529 -0.890717 0 0 Z " fill="#333333" transform="translate(161,122)"/>
<path d="M0 0 C1.32 0 2.64 0 4 0 C4.33 3.63 4.66 7.26 5 11 C6.65 7.37 8.3 3.74 10 0 C11.98 0 13.96 0 16 0 C16.33 3.63 16.66 7.26 17 11 C18.65 7.37 20.3 3.74 22 0 C23.32 0 24.64 0 26 0 C25.40440894 4.86872054 23.27522585 8.59328841 20.9375 12.8125 C20.56044922 13.50537109 20.18339844 14.19824219 19.79492188 14.91210938 C18.86916148 16.61128985 17.93537688 18.30609425 17 20 C15.35 20 13.7 20 12 20 C11.67 16.37 11.34 12.74 11 9 C9.02 12.63 7.04 16.26 5 20 C3.35 20 1.7 20 0 20 C0 13.4 0 6.8 0 0 Z " fill="#2B2B2B" transform="translate(15,122)"/>
<path d="M0 0 C0.33 0 0.66 0 1 0 C1.6719902 3.91577268 2.33666742 7.8327522 3 11.75 C3.19078125 12.86117187 3.3815625 13.97234375 3.578125 15.1171875 C3.75859375 16.18710938 3.9390625 17.25703125 4.125 18.359375 C4.29257812 19.34389648 4.46015625 20.32841797 4.6328125 21.34277344 C5 24 5 24 5 28 C7.64 28 10.28 28 13 28 C13.07347656 26.87851563 13.07347656 26.87851563 13.1484375 25.734375 C13.22320312 24.74953125 13.29796875 23.7646875 13.375 22.75 C13.44460937 21.77546875 13.51421875 20.8009375 13.5859375 19.796875 C14 17 14 17 16 13 C16 20.92 16 28.84 16 37 C10.39 37 4.78 37 -1 37 C-1.02293088 32.05202569 -1.0428516 27.10423507 -1.05493164 22.15625 C-1.05996653 20.47232438 -1.06679481 18.78840314 -1.07543945 17.10449219 C-1.08754196 14.68683797 -1.09323668 12.26924144 -1.09765625 9.8515625 C-1.10281754 9.0963028 -1.10797882 8.34104309 -1.11329651 7.56289673 C-1.11387171 2.22774341 -1.11387171 2.22774341 0 0 Z " fill="#010101" transform="translate(16,80)"/>
<path d="M0 0 C1.98 0 3.96 0 6 0 C6.66 3.3 7.32 6.6 8 10 C9.65 6.7 11.3 3.4 13 0 C14.98 0 16.96 0 19 0 C18.69055299 2.58373234 18.37756043 5.16695133 18.0625 7.75 C17.97548828 8.47960937 17.88847656 9.20921875 17.79882812 9.9609375 C17.37972591 13.37584442 16.882726 16.67603543 16 20 C14.68 20 13.36 20 12 20 C12.66 15.71 13.32 11.42 14 7 C12.02 11.29 10.04 15.58 8 20 C6.35 20 4.7 20 3 20 C2.67 16.37 2.34 12.74 2 9 C1.34 12.63 0.68 16.26 0 20 C-1.32 20 -2.64 20 -4 20 C-3.34034961 13.13963599 -1.7637236 6.65556077 0 0 Z " fill="#303030" transform="translate(171,122)"/>
<path d="M0 0 C1.2065625 0.0309375 1.2065625 0.0309375 2.4375 0.0625 C4.07756048 6.73207927 4.95108785 13.21432898 5.4375 20.0625 C4.1175 20.0625 2.7975 20.0625 1.4375 20.0625 C1.4375 18.7425 1.4375 17.4225 1.4375 16.0625 C-0.02195288 16.14958669 -1.48015868 16.25776907 -2.9375 16.375 C-3.74960937 16.43300781 -4.56171875 16.49101562 -5.3984375 16.55078125 C-7.94171338 16.89240528 -7.94171338 16.89240528 -9.5625 20.0625 C-10.8825 19.7325 -12.2025 19.4025 -13.5625 19.0625 C-11.919409 16.08181287 -10.27257008 13.10321332 -8.625 10.125 C-8.15642578 9.27486328 -7.68785156 8.42472656 -7.20507812 7.54882812 C-6.75712891 6.73994141 -6.30917969 5.93105469 -5.84765625 5.09765625 C-5.43394775 4.3487915 -5.02023926 3.59992676 -4.59399414 2.82836914 C-2.98438227 0.07278981 -2.98438227 0.07278981 0 0 Z " fill="#242424" transform="translate(50.5625,121.9375)"/>
<path d="M0 0 C6.27 0 12.54 0 19 0 C19.33 3.3 19.66 6.6 20 10 C13.4 10 6.8 10 0 10 C-0.33 11.32 -0.66 12.64 -1 14 C-1.02736707 12.60427948 -1.04655989 11.20839779 -1.0625 9.8125 C-1.07410156 9.03519531 -1.08570312 8.25789063 -1.09765625 7.45703125 C-1 5 -1 5 0 0 Z " fill="#0D0D0D" transform="translate(100,66)"/>
<path d="M0 0 C0.7734375 -0.00773437 1.546875 -0.01546875 2.34375 -0.0234375 C5.00414788 0.46815776 5.91331254 1.20856136 7.5 3.375 C7.5 4.365 7.5 5.355 7.5 6.375 C6.18 6.375 4.86 6.375 3.5 6.375 C3.17 5.715 2.84 5.055 2.5 4.375 C0.85 4.375 -0.8 4.375 -2.5 4.375 C-2.5 5.035 -2.5 5.695 -2.5 6.375 C-0.74325879 7.7030064 -0.74325879 7.7030064 1.4375 8.9375 C5.44347826 11.31847826 5.44347826 11.31847826 6.5 12.375 C6.96297649 16.77327662 6.96297649 16.77327662 5.26171875 18.984375 C2.11292189 21.46989979 -1.5918226 21.49492602 -5.5 21.375 C-8.0625 20.1875 -8.0625 20.1875 -9.5 18.375 C-9.5 17.055 -9.5 15.735 -9.5 14.375 C-8.18 14.375 -6.86 14.375 -5.5 14.375 C-5.17 15.035 -4.84 15.695 -4.5 16.375 C-2.52 16.375 -0.54 16.375 1.5 16.375 C0.78995535 13.09643001 0.78995535 13.09643001 -2.4375 11.8125 C-3.448125 11.338125 -4.45875 10.86375 -5.5 10.375 C-7.5 8.375 -7.5 8.375 -7.8125 5.9375 C-7.5 3.375 -7.5 3.375 -6.26171875 1.73828125 C-4.03910346 0.0183417 -2.78521951 -0.0278522 0 0 Z " fill="#303030" transform="translate(69.5,121.625)"/>
<path d="M0 0 C4.95 0 9.9 0 15 0 C15 0.99 15 1.98 15 3 C11.04 3 7.08 3 3 3 C3 4.65 3 6.3 3 8 C6.3 8 9.6 8 13 8 C13 8.99 13 9.98 13 11 C9.37 11 5.74 11 2 11 C1.67 12.98 1.34 14.96 1 17 C4.63 17 8.26 17 12 17 C12 17.99 12 18.98 12 20 C6.72 20 1.44 20 -4 20 C-2.92349718 13.23341084 -1.78105501 6.61534718 0 0 Z " fill="#202020" transform="translate(100,122)"/>
<path d="M0 0 C0.78246094 -0.02578125 1.56492188 -0.0515625 2.37109375 -0.078125 C4.5625 0.25 4.5625 0.25 6.34765625 1.578125 C7.5625 3.25 7.5625 3.25 7.5625 6.25 C6.2425 6.25 4.9225 6.25 3.5625 6.25 C3.2325 5.59 2.9025 4.93 2.5625 4.25 C0.18875139 3.91574265 0.18875139 3.91574265 -2.4375 4.25 C-4.41759206 5.74901018 -4.41759206 5.74901018 -5.4375 8.25 C-5.77130814 11.87563814 -5.77130814 11.87563814 -5.4375 15.25 C-4.38320314 16.51472065 -4.38320314 16.51472065 -2 16.5 C-1.154375 16.4175 -0.30875 16.335 0.5625 16.25 C1.2225 15.26 1.8825 14.27 2.5625 13.25 C3.8825 13.25 5.2025 13.25 6.5625 13.25 C6.23965014 16.26326538 5.52884616 17.28461538 3.375 19.5 C0.00048736 21.59969675 -1.5358562 21.98155821 -5.4375 21.25 C-8.43071878 19.23283082 -10.1225228 17.73997912 -10.88671875 14.125 C-11.15113003 8.7273629 -10.01127705 5.45444359 -6.4375 1.25 C-4.11063547 0.08656773 -2.59028587 0.05104012 0 0 Z " fill="#2D2D2D" transform="translate(135.4375,121.75)"/>
<path d="M0 0 C2.375 0.4375 2.375 0.4375 4.375 2.4375 C4.83898201 6.53600772 4.75930032 8.76853277 2.6875 12.375 C0.375 14.4375 0.375 14.4375 -2.25 14.875 C-4.625 14.4375 -4.625 14.4375 -6.625 12.4375 C-7.08898201 8.33899228 -7.00930032 6.10646723 -4.9375 2.5 C-2.625 0.4375 -2.625 0.4375 0 0 Z " fill="#F8F8F8" transform="translate(156.625,124.5625)"/>
<path d="M0 0 C5.28 0 10.56 0 16 0 C16 0.99 16 1.98 16 3 C14.02 3.33 12.04 3.66 10 4 C9.01 9.28 8.02 14.56 7 20 C5.35 20 3.7 20 2 20 C2.31146472 18.10399631 2.62421717 16.20820413 2.9375 14.3125 C3.11152344 13.25675781 3.28554687 12.20101562 3.46484375 11.11328125 C3.93167121 8.39750396 4.44422616 5.69875765 5 3 C3.35 3 1.7 3 0 3 C0 2.01 0 1.02 0 0 Z " fill="#303030" transform="translate(81,122)"/>
<path d="M0 0 C4.95 0 9.9 0 15 0 C15 3.3 15 6.6 15 10 C9.39 10 3.78 10 -2 10 C-2 9.67 -2 9.34 -2 9 C3.445 8.505 3.445 8.505 9 8 C7.88625 7.608125 6.7725 7.21625 5.625 6.8125 C3.7265625 6.14453125 3.7265625 6.14453125 2 5 C1.34 3.35 0.68 1.7 0 0 Z " fill="#2E2E2E" transform="translate(78,88)"/>
<path d="M0 0 C1.98 0 3.96 0 6 0 C6 3.63 6 7.26 6 11 C5.34 11 4.68 11 4 11 C3.34 10.34 2.68 9.68 2 9 C1.34 12.63 0.68 16.26 0 20 C-1.32 20 -2.64 20 -4 20 C-3.34034961 13.13963599 -1.7637236 6.65556077 0 0 Z " fill="#242424" transform="translate(171,122)"/>
<path d="M0 0 C1.2065625 0.0309375 1.2065625 0.0309375 2.4375 0.0625 C2.7675 2.0425 3.0975 4.0225 3.4375 6.0625 C2.4475 6.5575 2.4475 6.5575 1.4375 7.0625 C0.77977572 10.09184491 0.77977572 10.09184491 0.4375 13.0625 C-1.5425 13.0625 -3.5225 13.0625 -5.5625 13.0625 C-5.5625 12.4025 -5.5625 11.7425 -5.5625 11.0625 C-6.8825 11.3925 -8.2025 11.7225 -9.5625 12.0625 C-8.58546079 10.2488523 -7.60580895 8.43661183 -6.625 6.625 C-6.07972656 5.61566406 -5.53445312 4.60632813 -4.97265625 3.56640625 C-3.00540123 0.07330247 -3.00540123 0.07330247 0 0 Z " fill="#343434" transform="translate(50.5625,121.9375)"/>
<path d="M0 0 C1.32 0 2.64 0 4 0 C3.40440894 4.86872054 1.27522585 8.59328841 -1.0625 12.8125 C-1.43955078 13.50537109 -1.81660156 14.19824219 -2.20507812 14.91210938 C-3.13083852 16.61128985 -4.06462312 18.30609425 -5 20 C-6.32 20 -7.64 20 -9 20 C-9 17.69 -9 15.38 -9 13 C-8.34 12.67 -7.68 12.34 -7 12 C-6.67 12.66 -6.34 13.32 -6 14 C-4.02 9.38 -2.04 4.76 0 0 Z " fill="#2B2B2B" transform="translate(37,122)"/>
<path d="M0 0 C0.33 0 0.66 0 1 0 C1.33 1.98 1.66 3.96 2 6 C2.99 6.33 3.98 6.66 5 7 C4.44271087 10.34373475 3.64826111 13.03312999 2 16 C0.35 16 -1.3 16 -3 16 C-3 12.37 -3 8.74 -3 5 C-2.67 5.66 -2.34 6.32 -2 7 C-1.34 7 -0.68 7 0 7 C0 4.69 0 2.38 0 0 Z " fill="#3D3D3D" transform="translate(177,126)"/>
<path d="M0 0 C1.32 0.33 2.64 0.66 4 1 C4.25380117 7.34502924 4.25380117 7.34502924 3.03125 10.5 C1.53267371 15.58607709 1.53097646 20.59779649 1.375 25.875 C1.33632813 26.94492188 1.29765625 28.01484375 1.2578125 29.1171875 C1.16397548 31.74462408 1.07828443 34.37206171 1 37 C0.67 37 0.34 37 0 37 C0 24.79 0 12.58 0 0 Z " fill="#9E9E9E" transform="translate(32,80)"/>
<path d="M0 0 C3.41756151 -0.31068741 5.40106977 -0.3625104 8.375 1.4375 C10.71135006 5.12174433 10.70816502 8.73454092 10 13 C9.34 13.66 8.68 14.32 8 15 C7.34 15 6.68 15 6 15 C5.67 11.7 5.34 8.4 5 5 C2.525 4.01 2.525 4.01 0 3 C0 2.01 0 1.02 0 0 Z " fill="#252525" transform="translate(155,122)"/>
<path d="M0 0 C4.95 0.33 9.9 0.66 15 1 C15 2.32 15 3.64 15 5 C6.42857143 6.28571429 6.42857143 6.28571429 3 5 C3 4.34 3 3.68 3 3 C2.34 3 1.68 3 1 3 C0.67 2.01 0.34 1.02 0 0 Z " fill="#1A1A1A" transform="translate(77,103)"/>
<path d="M0 0 C0.66 0.33 1.32 0.66 2 1 C4.0374763 1.22858114 6.08040303 1.41024278 8.125 1.5625 C9.76855469 1.68818359 9.76855469 1.68818359 11.4453125 1.81640625 C12.28835937 1.87699219 13.13140625 1.93757812 14 2 C14 2.99 14 3.98 14 5 C8.72 5 3.44 5 -2 5 C-1.34 3.35 -0.68 1.7 0 0 Z " fill="#202020" transform="translate(98,137)"/>
<path d="M0 0 C1.32 0 2.64 0 4 0 C4.33 0.66 4.66 1.32 5 2 C7.52733235 2.65555119 7.52733235 2.65555119 10 3 C10 3.66 10 4.32 10 5 C10.99 5.33 11.98 5.66 13 6 C4.9303782 7.43115087 4.9303782 7.43115087 1.4375 5.8125 C0 4 0 4 0 0 Z " fill="#333333" transform="translate(60,136)"/>
<path d="M0 0 C4.95 0 9.9 0 15 0 C15 0.99 15 1.98 15 3 C13.75283203 3.09087891 13.75283203 3.09087891 12.48046875 3.18359375 C10.85044922 3.30927734 10.85044922 3.30927734 9.1875 3.4375 C7.56908203 3.55931641 7.56908203 3.55931641 5.91796875 3.68359375 C2.94010095 3.90212461 2.94010095 3.90212461 0 5 C0 3.35 0 1.7 0 0 Z " fill="#1F1F1F" transform="translate(100,122)"/>
<path d="M0 0 C3.63 0 7.26 0 11 0 C11 1.32 11 2.64 11 4 C6.71 4 2.42 4 -2 4 C-1.34 2.68 -0.68 1.36 0 0 Z " fill="#1F1F1F" transform="translate(81,76)"/>
<path d="M0 0 C1.32 0.33 2.64 0.66 4 1 C3.34 5.29 2.68 9.58 2 14 C0.68 14 -0.64 14 -2 14 C-1.43393721 9.30976546 -0.81462495 4.65499974 0 0 Z " fill="#313131" transform="translate(169,128)"/>
<path d="M0 0 C1.43655854 -0.08131463 2.8744483 -0.13933559 4.3125 -0.1875 C5.51326172 -0.23970703 5.51326172 -0.23970703 6.73828125 -0.29296875 C9 0 9 0 10.79296875 1.32421875 C12 3 12 3 12 6 C10.68 6 9.36 6 8 6 C7.67 5.34 7.34 4.68 7 4 C5.02 4 3.04 4 1 4 C0.67 2.68 0.34 1.36 0 0 Z " fill="#242424" transform="translate(131,122)"/>
<path d="M0 0 C5.28 0 10.56 0 16 0 C16 0.99 16 1.98 16 3 C10.66666667 3 5.33333333 3 0 3 C0 2.01 0 1.02 0 0 Z " fill="#1F1F1F" transform="translate(81,122)"/>
<path d="M0 0 C1.90389849 2.85584773 2.69462177 4.9311762 3.625 8.1875 C3.88539062 9.08855469 4.14578125 9.98960938 4.4140625 10.91796875 C4.60742188 11.60503906 4.80078125 12.29210937 5 13 C2.69 12.67 0.38 12.34 -2 12 C-1.34 8.04 -0.68 4.08 0 0 Z " fill="#262626" transform="translate(52,96)"/>
<path d="M0 0 C1.23922223 3.71766668 0.57018942 5.43889537 -0.4375 9.1875 C-0.72496094 10.27417969 -1.01242188 11.36085937 -1.30859375 12.48046875 C-1.65083984 13.72763672 -1.65083984 13.72763672 -2 15 C-0.68 15.33 0.64 15.66 2 16 C-0.31 16 -2.62 16 -5 16 C-6.39211215 11.82366356 -4.9535579 10.21039485 -3.0625 6.3125 C-2.49660156 5.13300781 -1.93070313 3.95351562 -1.34765625 2.73828125 C-0.90292969 1.83464844 -0.45820313 0.93101563 0 0 Z " fill="#D6D6D6" transform="translate(185,127)"/>
<path d="M0 0 C0.33 0 0.66 0 1 0 C1.33 4.62 1.66 9.24 2 14 C1.01 14.495 1.01 14.495 0 15 C-0.33 14.34 -0.66 13.68 -1 13 C-1.33 15.31 -1.66 17.62 -2 20 C-2.33 20 -2.66 20 -3 20 C-3.33 15.38 -3.66 10.76 -4 6 C-3.01 6.33 -2.02 6.66 -1 7 C-0.67 4.69 -0.34 2.38 0 0 Z " fill="#545454" transform="translate(30,122)"/>
<path d="M0 0 C7.4422658 -0.36601307 7.4422658 -0.36601307 10 1.3125 C11 3 11 3 11 6 C9.68 6 8.36 6 7 6 C6.67 5.34 6.34 4.68 6 4 C4.02111039 3.27306096 2.02045442 2.60183749 0 2 C0 1.34 0 0.68 0 0 Z " fill="#282828" transform="translate(66,122)"/>
<path d="M0 0 C1.65 0 3.3 0 5 0 C5.125 3.375 5.125 3.375 5 7 C4.34 7.66 3.68 8.32 3 9 C3 8.01 3 7.02 3 6 C1.68 6.33 0.36 6.66 -1 7 C-0.67 4.69 -0.34 2.38 0 0 Z " fill="#242424" transform="translate(25,122)"/>
<path d="M0 0 C0.99 0.66 1.98 1.32 3 2 C2.6875 3.875 2.6875 3.875 2 6 C-1.22791555 8.1519437 -2.28400809 8.20086443 -6 8 C-6.33 7.01 -6.66 6.02 -7 5 C-6.21625 4.731875 -5.4325 4.46375 -4.625 4.1875 C-1.71885077 3.15185568 -1.71885077 3.15185568 0 0 Z " fill="#2D2D2D" transform="translate(160,134)"/>
<path d="M0 0 C0.66 0.66 1.32 1.32 2 2 C2.99 2 3.98 2 5 2 C4.34 3.98 3.68 5.96 3 8 C1.68 8 0.36 8 -1 8 C-1.04241723 5.66705225 -1.04092937 3.33297433 -1 1 C-0.67 0.67 -0.34 0.34 0 0 Z " fill="#1F1F1F" transform="translate(29,134)"/>
<path d="M0 0 C7.59 0 15.18 0 23 0 C23 0.33 23 0.66 23 1 C17.06 1.33 11.12 1.66 5 2 C5.33 2.66 5.66 3.32 6 4 C4.02 3.34 2.04 2.68 0 2 C0 1.34 0 0.68 0 0 Z " fill="#999999" transform="translate(145,46)"/>
<path d="M0 0 C0.99 0.33 1.98 0.66 3 1 C3.17835515 5.54805635 2.99785435 8.8794254 1 13 C0.67 13 0.34 13 0 13 C0 8.71 0 4.42 0 0 Z " fill="#EAEAEA" transform="translate(33,80)"/>
<path d="M0 0 C2.12508244 3.18762365 2.5020163 5.26512223 3 9 C1.35 9 -0.3 9 -2 9 C-1.125 1.125 -1.125 1.125 0 0 Z " fill="#020202" transform="translate(62,87)"/>
<path d="M0 0 C0.33 0.66 0.66 1.32 1 2 C1.66 2 2.32 2 3 2 C3.625 3.8125 3.625 3.8125 4 6 C3.01 7.485 3.01 7.485 2 9 C1.01 8.67 0.02 8.34 -1 8 C-0.67 5.36 -0.34 2.72 0 0 Z " fill="#383838" transform="translate(98,130)"/>
<path d="M0 0 C0.33 0.66 0.66 1.32 1 2 C1.66 2 2.32 2 3 2 C1.25 7.75 1.25 7.75 -1 10 C-2.1875 8.375 -2.1875 8.375 -3 6 C-1.625 2.75 -1.625 2.75 0 0 Z " fill="#323232" transform="translate(23,127)"/>
<path d="M0 0 C1.98 0 3.96 0 6 0 C5.67 1.98 5.34 3.96 5 6 C4.34 6 3.68 6 3 6 C2.67 5.34 2.34 4.68 2 4 C1.34 4 0.68 4 0 4 C0 2.68 0 1.36 0 0 Z " fill="#232323" transform="translate(184,122)"/>
<path d="M0 0 C0.33 0 0.66 0 1 0 C1.33 3.63 1.66 7.26 2 11 C0.68 11 -0.64 11 -2 11 C-1.855625 10.29875 -1.71125 9.5975 -1.5625 8.875 C-0.98521625 5.92443859 -0.48304859 2.96729849 0 0 Z " fill="#383838" transform="translate(54,131)"/>
<path d="M0 0 C2 3 2 3 2 7 C0.35 7 -1.3 7 -3 7 C-1.125 1.125 -1.125 1.125 0 0 Z " fill="#E4E4E4" transform="translate(49,127)"/>
<path d="M0 0 C1.98 0.99 1.98 0.99 4 2 C3.67 3.98 3.34 5.96 3 8 C2.01 8 1.02 8 0 8 C0 5.36 0 2.72 0 0 Z " fill="#2B2B2B" transform="translate(99,124)"/>
<path d="M0 0 C0.66 0 1.32 0 2 0 C2 1.65 2 3.3 2 5 C0.35 5.33 -1.3 5.66 -3 6 C-1.125 1.125 -1.125 1.125 0 0 Z " fill="#212121" transform="translate(73,135)"/>
<path d="M0 0 C0.99 0.33 1.98 0.66 3 1 C3 2.65 3 4.3 3 6 C1.68 6 0.36 6 -1 6 C-0.67 4.02 -0.34 2.04 0 0 Z " fill="#272727" transform="translate(184,136)"/>
<path d="M0 0 C2.52588702 2.36292656 3.88820837 3.66462511 5 7 C2.525 8.485 2.525 8.485 0 10 C0.185625 8.906875 0.37125 7.81375 0.5625 6.6875 C1.2578068 3.06375867 1.2578068 3.06375867 0 0 Z " fill="#BDBDBD" transform="translate(151,50)"/>
<path d="M0 0 C1.32 0 2.64 0 4 0 C4 0.99 4 1.98 4 3 C2.02 3.99 0.04 4.98 -2 6 C-1.34 4.02 -0.68 2.04 0 0 Z " fill="#3A3A3A" transform="translate(37,122)"/>
</svg>
